<svg width="24" height="24" viewBox="0 0 24 24" fill="none" xmlns="http://www.w3.org/2000/svg">
<g clip-path="url(#clip0_272_53173)">
<path d="M18.7825 8.76171C18.3022 8.28133 17.6457 8.04626 16.9829 8.09709C16.7762 7.46532 16.3078 6.94878 15.6802 6.6888C15.0526 6.42885 14.3562 6.46292 13.7633 6.76349C13.3305 6.25889 12.7001 5.96091 12.0208 5.96089C11.3415 5.96089 10.7111 6.25904 10.2783 6.76346C9.68541 6.4629 8.98896 6.42881 8.36139 6.68876C7.73372 6.94875 7.26538 7.46532 7.05872 8.09707C6.39591 8.04633 5.73944 8.28137 5.25908 8.76174C4.77871 9.2421 4.54367 9.89857 4.59448 10.5614C3.96271 10.768 3.44616 11.2365 3.18621 11.864C2.92626 12.4916 2.96033 13.1881 3.26087 13.781C2.756 14.2137 2.4583 14.8441 2.4583 15.5234C2.4583 16.7977 3.495 17.8344 4.76925 17.8344L19.2723 17.8344C19.9095 17.8344 20.4872 17.5752 20.9057 17.1567C21.3241 16.7383 21.5833 16.1605 21.5833 15.5234C21.5833 14.8441 21.2853 14.2137 20.7807 13.7809C21.0813 13.188 21.1154 12.4916 20.8554 11.864C20.5954 11.2363 20.0789 10.768 19.4471 10.5613C19.4979 9.8985 19.2629 9.24203 18.7825 8.76171ZM18.1873 15.169C18.1873 15.3065 18.1315 15.431 18.0414 15.5211C17.9513 15.6113 17.8268 15.667 17.6893 15.667C17.4142 15.667 17.1912 15.444 17.1912 15.1689C17.1912 13.7879 16.6534 12.4895 15.6768 11.513C14.7003 10.5364 13.4019 9.99859 12.0209 9.99859C10.6398 9.99861 9.34141 10.5364 8.36486 11.513C7.38831 12.4895 6.85052 13.7879 6.8505 15.1689C6.85052 15.444 6.62752 15.667 6.35245 15.667C6.07738 15.667 5.85441 15.444 5.85441 15.1689C5.85439 11.7688 8.62066 9.0025 12.0209 9.0025C15.421 9.0025 18.1873 11.7688 18.1873 15.169Z" fill="#F82C17"/>
</g>
<defs>
<clipPath id="clip0_272_53173">
<rect width="20" height="20" fill="white" transform="translate(2 2)"/>
</clipPath>
</defs>
</svg>
