<svg width="12" height="12" viewBox="0 0 12 12" fill="none" xmlns="http://www.w3.org/2000/svg">
<path d="M6.83333 1.83333C6.83333 2.05435 6.74554 2.26631 6.58926 2.42259C6.43298 2.57887 6.22101 2.66667 6 2.66667C5.77899 2.66667 5.56702 2.57887 5.41074 2.42259C5.25446 2.26631 5.16667 2.05435 5.16667 1.83333C5.16667 1.61232 5.25446 1.40036 5.41074 1.24408C5.56702 1.0878 5.77899 1 6 1C6.22101 1 6.43298 1.0878 6.58926 1.24408C6.74554 1.40036 6.83333 1.61232 6.83333 1.83333ZM9.25 8.775C8.73833 8.97317 8.16896 8.96044 7.66667 8.73958C7.40382 8.8543 7.12012 8.91351 6.83333 8.91351C6.54655 8.91351 6.26285 8.8543 6 8.73958C5.73715 8.8543 5.45345 8.91351 5.16667 8.91351C4.87988 8.91351 4.59618 8.8543 4.33333 8.73958C3.83173 8.96027 3.26307 8.97301 2.75208 8.775C2.52926 8.86761 2.29047 8.91574 2.04917 8.91667L2.23667 9.96958C2.28821 10.2584 2.43972 10.5199 2.66467 10.7083C2.88962 10.8967 3.17367 11 3.46708 11H8.53333C8.82687 10.9999 9.11101 10.8966 9.33598 10.708C9.56095 10.5195 9.71238 10.2578 9.76375 9.96875L9.95083 8.91667C9.71023 8.91547 9.47218 8.86735 9.25 8.775ZM7.30833 2.85333C7.15233 3.05101 6.95357 3.21077 6.72696 3.32061C6.50036 3.43044 6.25182 3.48751 6 3.48751C5.74818 3.48751 5.49964 3.43044 5.27304 3.32061C5.04643 3.21077 4.84767 3.05101 4.69167 2.85333C2.69667 3.40958 1 5.14958 1 7.04167C1.00255 7.24164 1.0624 7.43669 1.17246 7.60368C1.28252 7.77066 1.43817 7.90257 1.62094 7.98376C1.80371 8.06495 2.00594 8.09201 2.20362 8.06172C2.40131 8.03144 2.58616 7.94509 2.73625 7.81292C2.96599 7.99398 3.25243 8.08783 3.54478 8.07784C3.83712 8.06785 4.11649 7.95466 4.33333 7.75833C4.56209 7.96417 4.85893 8.07807 5.16667 8.07807C5.4744 8.07807 5.77124 7.96417 6 7.75833C6.22876 7.96417 6.5256 8.07807 6.83333 8.07807C7.14107 8.07807 7.43791 7.96417 7.66667 7.75833C7.88351 7.95466 8.16288 8.06785 8.45522 8.07784C8.74757 8.08783 9.03401 7.99398 9.26375 7.81292C9.41384 7.94509 9.59869 8.03144 9.79638 8.06172C9.99406 8.09201 10.1963 8.06495 10.3791 7.98376C10.5618 7.90257 10.7175 7.77066 10.8275 7.60368C10.9376 7.43669 10.9975 7.24164 11 7.04167C11 5.14958 9.30333 3.40958 7.30833 2.85333Z" fill="#F82C17"/>
</svg>
