<svg width="24" height="24" viewBox="0 0 24 24" fill="none" xmlns="http://www.w3.org/2000/svg">
<g clip-path="url(#clip0_272_53178)">
<path fill-rule="evenodd" clip-rule="evenodd" d="M13.8233 3.56164C13.9698 3.34505 14.0257 3.07975 13.979 2.82247C13.9324 2.5652 13.787 2.33639 13.5738 2.18496C13.3607 2.03353 13.0968 1.97152 12.8385 2.01218C12.5802 2.05284 12.3481 2.19295 12.1918 2.40254L11.1908 3.81287C11.1527 3.86626 11.1198 3.92325 11.0927 3.98303H7.50236C7.10416 3.98303 6.72227 4.14122 6.4407 4.42279C6.15913 4.70436 6.00094 5.08625 6.00094 5.48445V6.98586L6.00395 7.06994C5.71037 7.17303 5.45608 7.36479 5.27622 7.6187C5.09637 7.87261 4.99985 8.17612 5 8.48727V9.98869C5 10.2533 5.10477 10.5071 5.2914 10.6947C5.47803 10.8823 5.73134 10.9883 5.99594 10.9896L6.91681 20.1983C6.96643 20.6921 7.19771 21.1498 7.56576 21.4828C7.93381 21.8157 8.4124 22 8.90868 22H15.1045C15.6008 22 16.0794 21.8157 16.4474 21.4828C16.8155 21.1498 17.0468 20.6921 17.0964 20.1983L18.0173 10.9896C18.2819 10.9883 18.5352 10.8823 18.7218 10.6947C18.9084 10.5071 19.0132 10.2533 19.0132 9.98869V8.48727C19.0133 8.17612 18.9168 7.87261 18.737 7.6187C18.5571 7.36479 18.3028 7.17303 18.0093 7.06994L18.0123 6.98586V5.48445C18.0123 5.08625 17.8541 4.70436 17.5725 4.42279C17.2909 4.14122 16.909 3.98303 16.5108 3.98303H13.525L13.8233 3.56164ZM8.00283 6.98586V5.98492H16.0104V6.98586H8.00283Z" fill="#F82C17"/>
</g>
<defs>
<clipPath id="clip0_272_53178">
<rect width="20" height="20" fill="white" transform="translate(2 2)"/>
</clipPath>
</defs>
</svg>
