<svg width="12" height="12" viewBox="0 0 12 12" fill="none" xmlns="http://www.w3.org/2000/svg">
<path d="M10.7502 5.38893L8.73812 7.14489L9.34084 9.75921C9.37273 9.89587 9.36363 10.0389 9.31467 10.1704C9.26571 10.302 9.17907 10.4161 9.06558 10.4987C8.95208 10.5812 8.81677 10.6285 8.67656 10.6346C8.53635 10.6406 8.39747 10.6052 8.27726 10.5328L5.9971 9.14979L3.72184 10.5328C3.60164 10.6052 3.46275 10.6406 3.32255 10.6346C3.18234 10.6285 3.04702 10.5812 2.93353 10.4987C2.82004 10.4161 2.73339 10.302 2.68444 10.1704C2.63548 10.0389 2.62638 9.89587 2.65827 9.75921L3.2601 7.14757L1.24761 5.38893C1.14117 5.29712 1.0642 5.17594 1.02636 5.04057C0.988513 4.90519 0.99148 4.76166 1.03488 4.62797C1.07829 4.49428 1.1602 4.37637 1.27035 4.28905C1.38049 4.20172 1.51397 4.14886 1.65403 4.13709L4.30672 3.90733L5.34218 1.43756C5.39626 1.30797 5.48746 1.19727 5.60432 1.11941C5.72118 1.04155 5.85846 1 5.99888 1C6.13931 1 6.27659 1.04155 6.39345 1.11941C6.51031 1.19727 6.60151 1.30797 6.65559 1.43756L7.69417 3.90733L10.346 4.13709C10.486 4.14886 10.6195 4.20172 10.7297 4.28905C10.8398 4.37637 10.9217 4.49428 10.9651 4.62797C11.0085 4.76166 11.0115 4.90519 10.9736 5.04057C10.9358 5.17594 10.8588 5.29712 10.7524 5.38893H10.7502Z" fill="#F82C17"/>
</svg>
