<svg width="24" height="24" viewBox="0 0 24 24" fill="none" xmlns="http://www.w3.org/2000/svg">
<g clip-path="url(#clip0_272_53175)">
<path d="M20.5312 3.469C19.5719 2.50958 18.2062 2.00256 16.5816 2.00256C13.4594 2.00256 9.8024 3.79564 6.79897 6.79892C4.52985 9.06804 2.93012 11.7381 2.29436 14.3171C1.65188 16.9243 2.06894 19.131 3.46889 20.531C4.42817 21.4904 5.79386 21.9974 7.41846 21.9974C10.5406 21.9974 14.1977 20.2045 17.2011 17.201C19.4702 14.9319 21.0699 12.262 21.7055 9.68268C22.3482 7.0755 21.9311 4.8688 20.5312 3.469ZM9.93741 18.4754C9.908 18.5048 9.86811 18.5212 9.82681 18.5212C9.82196 18.5212 9.81711 18.5209 9.8121 18.5204C8.97579 18.4413 7.93986 17.8576 7.04129 16.959C6.14271 16.0605 5.55889 15.0245 5.47973 14.1881C5.47535 14.1416 5.49194 14.0958 5.52495 14.0628C5.55795 14.0298 5.60379 14.0133 5.65025 14.0176C6.48656 14.0967 7.52249 14.6804 8.42106 15.5791C9.31979 16.4778 9.90362 17.5136 9.98262 18.3499C9.98684 18.3964 9.97042 18.4424 9.93741 18.4754ZM15.4305 15.4306C15.4011 15.4601 15.3612 15.4765 15.3199 15.4765C15.3149 15.4765 15.3101 15.4762 15.3051 15.4757C14.0215 15.3529 12.3619 14.4143 10.9738 13.0262C9.58574 11.6383 8.64711 9.97882 8.52416 8.69494C8.51977 8.64848 8.53636 8.60248 8.56937 8.56948C8.60237 8.53631 8.64837 8.52004 8.69483 8.52427C9.97839 8.64723 11.6379 9.58585 13.0261 10.9739C14.4143 12.362 15.3528 14.0215 15.4757 15.305C15.4801 15.3515 15.4635 15.3976 15.4305 15.4306ZM18.4753 9.93736C18.4459 9.96677 18.406 9.9832 18.3647 9.9832C18.3598 9.9832 18.3548 9.98304 18.35 9.98257C17.5135 9.90326 16.4777 9.31959 15.5792 8.42102C14.6804 7.52244 14.0968 6.48652 14.0176 5.65005C14.0132 5.60359 14.0298 5.55775 14.0628 5.52474C14.0958 5.49173 14.1417 5.47531 14.1881 5.47953C15.0244 5.55869 16.0604 6.14236 16.9589 7.04109C17.8577 7.93966 18.4413 8.97559 18.5205 9.81205C18.5247 9.85867 18.5083 9.90435 18.4753 9.93736Z" fill="#F82C17"/>
</g>
<defs>
<clipPath id="clip0_272_53175">
<rect width="20" height="20" fill="white" transform="translate(2 2)"/>
</clipPath>
</defs>
</svg>
