<svg width="12" height="12" viewBox="0 0 12 12" fill="none" xmlns="http://www.w3.org/2000/svg">
<path d="M4.27525 1.00659C4.25372 1.01246 4.08349 1.07312 3.89955 1.1416L3.56103 1.26684L3.31252 1.21792C2.89182 1.13573 2.74311 1.1553 2.56309 1.31771C2.41046 1.45664 2.35567 1.63079 2.39089 1.87343C2.4085 1.99083 2.42416 2.02997 2.46721 2.07302L2.52004 2.12781H5.85043H9.18083L9.23366 2.07302C9.27671 2.02997 9.29236 1.99083 9.30997 1.87343C9.34519 1.63471 9.29236 1.46447 9.14365 1.32163C8.97537 1.15726 8.80317 1.13573 8.3903 1.21792L8.14571 1.26879L7.79545 1.13573C7.48041 1.01833 7.43149 1.00463 7.29843 1.00463C7.15754 1.00267 7.13798 1.00854 6.83272 1.14356L6.51377 1.28445L6.23983 1.18661C6.03046 1.11421 5.93849 1.09073 5.85043 1.09073C5.76238 1.09073 5.67041 1.11421 5.46104 1.18661L5.18709 1.28445L4.8701 1.14552C4.61181 1.03398 4.53158 1.00659 4.43374 1.00072C4.36721 0.998761 4.29677 1.00072 4.27525 1.00659Z" fill="#F82C17"/>
<path d="M2.46918 2.55047C2.40656 2.59352 2.39286 2.62483 2.32829 2.91834C1.98194 4.47983 1.90759 6.17438 2.115 7.83175C2.18545 8.39334 2.35373 9.28757 2.40656 9.38932C2.46135 9.49108 2.24219 9.4852 5.85632 9.4852H9.20041L9.25324 9.43042C9.30998 9.37367 9.3276 9.31301 9.42348 8.83948C9.61719 7.86893 9.69351 7.07448 9.69351 6.00218C9.69351 5.21753 9.67003 4.83009 9.58589 4.17262C9.51349 3.6032 9.34716 2.71484 9.29433 2.61504C9.23954 2.51329 9.4587 2.51916 5.85045 2.51916C2.8664 2.51916 2.50831 2.52308 2.46918 2.55047ZM4.52181 3.52885C4.73314 3.58951 4.84467 3.68734 4.99926 3.94564C5.14014 4.18045 5.36713 4.46613 5.58628 4.68333C5.89545 4.9925 6.39638 5.35646 6.50987 5.35646C6.55879 5.35646 6.62728 5.27231 6.7349 5.08447C6.82099 4.93575 6.92862 4.834 7.07929 4.76356C7.19473 4.70877 7.22996 4.70094 7.37671 4.7029C7.71132 4.70486 7.90895 4.84379 8.0968 5.21166C8.29247 5.59518 8.37466 5.93174 8.37466 6.34853C8.37466 6.7614 8.26899 7.15471 8.0694 7.49323C7.9383 7.71434 7.6037 8.0509 7.38454 8.18005C6.68794 8.59293 5.83479 8.61445 5.09905 8.24071C4.78401 8.08026 4.53746 7.86697 4.45528 7.68891C4.41027 7.58911 4.39853 7.35821 4.42984 7.1645C4.4455 7.06666 4.4455 7.06274 4.39071 7.02752C4.10306 6.85142 3.90543 6.67726 3.73715 6.45028C3.53952 6.18416 3.40255 5.84956 3.3458 5.48951C3.30667 5.2547 3.33015 4.80661 3.39081 4.5718C3.48082 4.22937 3.63736 3.90063 3.79194 3.72844C3.97001 3.53276 4.2596 3.45253 4.52181 3.52885Z" fill="#F82C17"/>
<path d="M4.15396 3.9202C4.07569 3.95934 3.96611 4.11979 3.87806 4.32525C3.58259 5.0062 3.66477 5.74781 4.09135 6.28005C4.24593 6.47377 4.50031 6.6714 4.70185 6.75554C4.77034 6.78293 4.77425 6.78293 5.00515 6.66944C5.28496 6.53051 5.49825 6.40137 5.71741 6.23308C5.89156 6.10198 6.1929 5.82021 6.22421 5.76151C6.25551 5.7028 6.22812 5.66367 6.09897 5.58149C5.50999 5.2097 5.02863 4.72247 4.65293 4.11588C4.6001 4.02978 4.53357 3.95151 4.49639 3.92803C4.41617 3.87911 4.24397 3.8752 4.15396 3.9202Z" fill="#F82C17"/>
<path d="M7.22215 5.11577C7.18497 5.13338 7.1341 5.18034 7.10866 5.21752C7.08322 5.25666 7.00495 5.37406 6.93647 5.47973C6.50402 6.1372 5.92678 6.63812 5.14995 7.02752C4.88383 7.16058 4.82709 7.2095 4.79382 7.33473C4.75469 7.47953 4.80947 7.59106 4.9895 7.72412C5.36128 7.99807 5.79372 8.12917 6.28095 8.1096C6.70557 8.09395 7.05778 7.97067 7.35717 7.72999C7.89136 7.30538 8.12226 6.55007 7.93441 5.84173C7.85418 5.52865 7.6859 5.21361 7.5548 5.12751C7.47262 5.07272 7.31999 5.06685 7.22215 5.11577Z" fill="#F82C17"/>
<path d="M2.46721 9.93135C2.42416 9.9744 2.4085 10.0135 2.39089 10.1309C2.35567 10.3736 2.41046 10.5477 2.56309 10.6867C2.74311 10.8491 2.89769 10.8686 3.31252 10.7864L3.55712 10.7356L3.90738 10.8667C4.22046 10.986 4.26938 10.9997 4.40244 10.9997C4.54332 11.0017 4.56289 10.9958 4.86814 10.8608L5.18709 10.7199L5.46104 10.8178C5.825 10.9449 5.87587 10.9449 6.23983 10.8178L6.51377 10.7199L6.83272 10.8608C7.13798 10.9958 7.15754 11.0017 7.29843 10.9997C7.43149 10.9997 7.48041 10.986 7.79545 10.8686L8.14571 10.7356L8.3903 10.7864C8.80317 10.8686 8.97537 10.8471 9.14365 10.6827C9.29236 10.5399 9.34519 10.3697 9.30997 10.1309C9.29236 10.0135 9.27671 9.9744 9.23366 9.93135L9.18083 9.87656H5.85043H2.52004L2.46721 9.93135Z" fill="#F82C17"/>
</svg>
