<svg width="12" height="12" viewBox="0 0 12 12" fill="none" xmlns="http://www.w3.org/2000/svg">
<path d="M1 5.125C1 4.43555 1.56055 3.875 2.25 3.875H2.28125C2.42578 3.16211 3.05664 2.625 3.8125 2.625C4.10547 2.625 4.37891 2.70508 4.61133 2.84375C4.87109 2.34375 5.39648 2 6 2C6.60352 2 7.12891 2.34375 7.38867 2.84375C7.62109 2.70508 7.89453 2.625 8.1875 2.625C8.94336 2.625 9.57422 3.16211 9.71875 3.875H9.75C10.4395 3.875 11 4.43555 11 5.125C11 5.35352 10.9395 5.56641 10.832 5.75H1.16797C1.06055 5.56641 1 5.35352 1 5.125ZM1 6.91016C1 6.61523 1.24023 6.375 1.53516 6.375H10.4648C10.7598 6.375 11 6.61523 11 6.91016C11 8.28711 10.1328 9.46289 8.91602 9.91992L8.88086 10.2031C8.8418 10.5156 8.57617 10.75 8.25977 10.75H3.73828C3.42383 10.75 3.15625 10.5156 3.11719 10.2031L3.08203 9.92188C1.86719 9.46289 1 8.28711 1 6.91016Z" fill="#F82C17"/>
</svg>
